<?xml version="1.0" standalone="no"?>
<!DOCTYPE svg PUBLIC "-//W3C//DTD SVG 20010904//EN"
 "http://www.w3.org/TR/2001/REC-SVG-20010904/DTD/svg10.dtd">
<svg version="1.0" xmlns="http://www.w3.org/2000/svg"
 width="344.000000pt" height="340.000000pt" viewBox="0 0 344.000000 340.000000"
 preserveAspectRatio="xMidYMid meet">

<g transform="translate(0.000000,340.000000) scale(0.100000,-0.100000)"
fill="#000000" stroke="none">
<path d="M1681 2267 c-19 -7 -44 -25 -55 -40 -21 -28 -21 -33 -19 -645 3 -681
0 -649 68 -678 47 -19 74 -18 113 6 63 39 62 29 61 672 0 425 -3 592 -12 617
-21 61 -91 91 -156 68z"/>
<path d="M1235 2031 c-11 -5 -29 -19 -40 -31 -19 -21 -20 -38 -23 -374 -2
-193 0 -370 3 -393 16 -110 165 -140 216 -43 18 32 19 62 19 393 0 394 -2 412
-59 441 -32 17 -83 20 -116 7z"/>
<path d="M2113 2025 c-56 -24 -60 -44 -67 -330 -8 -301 9 -481 48 -524 23 -25
92 -34 128 -15 60 31 59 26 56 435 -3 415 -2 406 -71 434 -45 18 -53 18 -94 0z"/>
<path d="M777 1899 c-43 -33 -49 -73 -45 -342 l3 -249 33 -29 c27 -24 41 -29
83 -29 45 0 55 4 85 34 l35 35 -3 271 -3 272 -33 29 c-41 37 -114 41 -155 8z"/>
<path d="M2518 1891 l-33 -29 -3 -271 -3 -270 34 -38 c31 -33 40 -37 83 -37
57 0 97 22 113 63 8 19 11 109 9 290 l-3 263 -33 29 c-26 24 -41 29 -82 29
-41 0 -56 -5 -82 -29z"/>
</g>
</svg>
